<svg width="171" height="46" viewBox="0 0 171 46" fill="none" xmlns="http://www.w3.org/2000/svg">
<path d="M20.1346 0.501241C20.7252 -0.0100258 21.5662 -0.148429 22.3 0.170784C23.033 0.490083 23.5056 1.19929 23.5365 1.98024L23.5224 2.31875L21.7531 16.5062H34.434C34.9534 16.5062 35.4851 16.5035 35.9158 16.5425C36.2556 16.5733 36.8682 16.6497 37.4479 17.018L37.6932 17.1933L37.9546 17.4311C38.448 17.9339 38.7551 18.5913 38.8252 19.2929L38.8413 19.6476C38.8288 20.4784 38.4235 21.1113 38.2019 21.4328C38.0789 21.6112 37.9315 21.8023 37.7736 21.9991L37.281 22.5975L18.9443 44.6514C18.3592 45.3551 17.38 45.5864 16.5416 45.2217C15.7035 44.8568 15.2058 43.9825 15.3192 43.0737L17.0885 28.8863H4.4076C3.88775 28.8863 3.35471 28.8891 2.92377 28.85C2.58393 28.8191 1.97301 28.7424 1.3937 28.3744L1.1484 28.1991C0.410228 27.6013 -0.0138637 26.6959 0.000346041 25.7449L0.0224627 25.4427C0.111283 24.7606 0.44582 24.241 0.639719 23.9596C0.88558 23.603 1.22796 23.195 1.56058 22.795L19.8973 0.741023L20.1346 0.501241ZM5.28623 24.7596H19.4208C20.0112 24.7597 20.5742 25.0131 20.9649 25.4568C21.3557 25.9004 21.5368 26.4916 21.4636 27.0788L20.2753 36.5996L33.5554 20.6329H19.4208C18.8303 20.6329 18.2675 20.3793 17.8767 19.9357C17.4858 19.492 17.3048 18.9009 17.378 18.3137L18.5643 8.79086L5.28623 24.7596Z" fill="#00D8FF"/>
<path d="M170.406 19.469L165.885 19.7472C165.807 19.3608 165.641 19.013 165.386 18.7038C165.131 18.387 164.795 18.1358 164.378 17.9503C163.968 17.7571 163.477 17.6605 162.905 17.6605C162.14 17.6605 161.495 17.8228 160.969 18.1474C160.444 18.4643 160.181 18.8893 160.181 19.4226C160.181 19.8477 160.351 20.207 160.691 20.5007C161.031 20.7944 161.615 21.0301 162.442 21.2079L165.664 21.857C167.396 22.2125 168.686 22.7844 169.536 23.5727C170.387 24.361 170.812 25.3967 170.812 26.6796C170.812 27.8466 170.468 28.8706 169.78 29.7516C169.1 30.6327 168.165 31.3205 166.974 31.8151C165.792 32.302 164.428 32.5454 162.882 32.5454C160.525 32.5454 158.647 32.0547 157.248 31.0732C155.857 30.0839 155.042 28.7392 154.802 27.0389L159.66 26.7839C159.806 27.5026 160.162 28.0514 160.726 28.4301C161.29 28.801 162.013 28.9865 162.894 28.9865C163.759 28.9865 164.455 28.8203 164.981 28.488C165.514 28.148 165.784 27.7113 165.792 27.1781C165.784 26.7298 165.595 26.3627 165.224 26.0768C164.853 25.7831 164.281 25.5589 163.508 25.4044L160.425 24.79C158.686 24.4422 157.391 23.8394 156.541 22.9815C155.699 22.1237 155.277 21.0301 155.277 19.7008C155.277 18.557 155.587 17.5716 156.205 16.7447C156.831 15.9178 157.708 15.2802 158.836 14.8319C159.973 14.3837 161.302 14.1595 162.824 14.1595C165.073 14.1595 166.843 14.6348 168.134 15.5854C169.432 16.536 170.189 17.8305 170.406 19.469Z" fill="#EBF5EE"/>
<path d="M152.467 19.469L147.946 19.7472C147.868 19.3608 147.702 19.013 147.447 18.7038C147.192 18.387 146.856 18.1358 146.439 17.9503C146.029 17.7571 145.538 17.6605 144.966 17.6605C144.201 17.6605 143.556 17.8228 143.03 18.1474C142.505 18.4643 142.242 18.8893 142.242 19.4226C142.242 19.8477 142.412 20.207 142.752 20.5007C143.092 20.7944 143.676 21.0301 144.503 21.2079L147.725 21.857C149.457 22.2125 150.747 22.7844 151.597 23.5727C152.447 24.361 152.873 25.3967 152.873 26.6796C152.873 27.8466 152.529 28.8706 151.841 29.7516C151.161 30.6327 150.226 31.3205 149.035 31.8151C147.853 32.302 146.489 32.5454 144.943 32.5454C142.586 32.5454 140.708 32.0547 139.309 31.0732C137.918 30.0839 137.103 28.7392 136.863 27.0389L141.72 26.7839C141.867 27.5026 142.223 28.0514 142.787 28.4301C143.351 28.801 144.074 28.9865 144.955 28.9865C145.82 28.9865 146.516 28.8203 147.041 28.488C147.575 28.148 147.845 27.7113 147.853 27.1781C147.845 26.7298 147.656 26.3627 147.285 26.0768C146.914 25.7831 146.342 25.5589 145.569 25.4044L142.486 24.79C140.747 24.4422 139.452 23.8394 138.602 22.9815C137.76 22.1237 137.338 21.0301 137.338 19.7008C137.338 18.557 137.648 17.5716 138.266 16.7447C138.892 15.9178 139.769 15.2802 140.897 14.8319C142.033 14.3837 143.363 14.1595 144.885 14.1595C147.134 14.1595 148.904 14.6348 150.195 15.5854C151.493 16.536 152.25 17.8305 152.467 19.469Z" fill="#EBF5EE"/>
<path d="M124.184 32.5338C123.048 32.5338 122.036 32.3368 121.147 31.9426C120.258 31.5407 119.555 30.9495 119.037 30.1689C118.527 29.3806 118.272 28.3991 118.272 27.2244C118.272 26.2352 118.454 25.4044 118.817 24.732C119.18 24.0596 119.675 23.5186 120.301 23.109C120.927 22.6994 121.638 22.3903 122.434 22.1816C123.237 21.973 124.08 21.8261 124.961 21.7411C125.996 21.6329 126.831 21.5324 127.465 21.4397C128.099 21.3392 128.558 21.1924 128.844 20.9992C129.13 20.806 129.273 20.52 129.273 20.1413V20.0718C129.273 19.3376 129.041 18.7695 128.578 18.3677C128.122 17.9658 127.473 17.7648 126.63 17.7648C125.741 17.7648 125.034 17.9619 124.509 18.3561C123.983 18.7425 123.635 19.2294 123.465 19.8167L118.898 19.4458C119.13 18.3638 119.586 17.4287 120.266 16.6404C120.946 15.8443 121.823 15.2338 122.897 14.8087C123.979 14.3759 125.231 14.1595 126.653 14.1595C127.643 14.1595 128.589 14.2755 129.494 14.5073C130.406 14.7392 131.213 15.0985 131.916 15.5854C132.627 16.0723 133.188 16.6983 133.597 17.4634C134.007 18.2208 134.212 19.1289 134.212 20.1877V32.1977H129.528V29.7284H129.389C129.103 30.2849 128.721 30.7756 128.242 31.2007C127.762 31.618 127.187 31.9465 126.514 32.1861C125.842 32.4179 125.065 32.5338 124.184 32.5338ZM125.598 29.1256C126.325 29.1256 126.966 28.9826 127.523 28.6967C128.079 28.403 128.516 28.0089 128.833 27.5142C129.15 27.0196 129.308 26.4593 129.308 25.8333V23.9437C129.154 24.0442 128.941 24.1369 128.671 24.2219C128.408 24.2992 128.11 24.3726 127.778 24.4422C127.446 24.504 127.113 24.562 126.781 24.6161C126.449 24.6625 126.147 24.705 125.877 24.7436C125.297 24.8286 124.791 24.9639 124.358 25.1493C123.925 25.3348 123.589 25.586 123.35 25.9029C123.11 26.212 122.99 26.5984 122.99 27.0621C122.99 27.7345 123.234 28.2484 123.72 28.6039C124.215 28.9517 124.841 29.1256 125.598 29.1256Z" fill="#EBF5EE"/>
<path d="M115.542 8.45598V32.1977H110.604V8.45598H115.542Z" fill="#EBF5EE"/>
<path d="M99.8812 32.5454C98.0573 32.5454 96.4885 32.159 95.1746 31.3862C93.8685 30.6056 92.8638 29.5236 92.1606 28.1402C91.465 26.7569 91.1172 25.1648 91.1172 23.3641C91.1172 21.5402 91.4689 19.9404 92.1721 18.5647C92.8832 17.1814 93.8917 16.1032 95.1978 15.3304C96.5039 14.5498 98.0573 14.1595 99.858 14.1595C101.411 14.1595 102.772 14.4416 103.939 15.0058C105.106 15.57 106.029 16.3621 106.709 17.3823C107.389 18.4024 107.764 19.6003 107.834 20.976H103.174C103.042 20.0872 102.694 19.3724 102.13 18.8314C101.574 18.2827 100.843 18.0083 99.9392 18.0083C99.1741 18.0083 98.5056 18.217 97.9337 18.6343C97.3695 19.0439 96.929 19.6429 96.6121 20.4311C96.2952 21.2194 96.1368 22.1739 96.1368 23.2945C96.1368 24.4306 96.2914 25.3967 96.6005 26.1927C96.9174 26.9887 97.3618 27.5954 97.9337 28.0127C98.5056 28.4301 99.1741 28.6387 99.9392 28.6387C100.503 28.6387 101.01 28.5228 101.458 28.2909C101.914 28.0591 102.289 27.7229 102.582 27.2824C102.884 26.8341 103.081 26.297 103.174 25.671H107.834C107.756 27.0312 107.386 28.2291 106.721 29.2647C106.064 30.2926 105.156 31.0964 103.997 31.676C102.837 32.2556 101.466 32.5454 99.8812 32.5454Z" fill="#EBF5EE"/>
<path d="M76.8588 21.9034V32.1977H71.9203V14.3914H76.6269V17.533H76.8356C77.2298 16.4974 77.8905 15.6782 78.8179 15.0754C79.7453 14.4648 80.8698 14.1595 82.1914 14.1595C83.4279 14.1595 84.506 14.43 85.4257 14.971C86.3454 15.512 87.0603 16.2849 87.5704 17.2895C88.0804 18.2865 88.3355 19.4767 88.3355 20.8601V32.1977H83.397V21.7411C83.4048 20.6514 83.1265 19.8013 82.5624 19.1907C81.9982 18.5725 81.2215 18.2633 80.2322 18.2633C79.5676 18.2633 78.9802 18.4063 78.4702 18.6923C77.9678 18.9782 77.5737 19.3955 77.2877 19.9443C77.0095 20.4852 76.8665 21.1383 76.8588 21.9034Z" fill="#EBF5EE"/>
<path d="M63.4234 24.6161V14.3914H68.3619V32.1977H63.6205V28.9633H63.435C63.0331 30.0066 62.3646 30.8452 61.4295 31.4789C60.5021 32.1126 59.3699 32.4295 58.0329 32.4295C56.8427 32.4295 55.7955 32.159 54.8913 31.618C53.987 31.077 53.2799 30.3081 52.7698 29.3111C52.2675 28.3141 52.0124 27.1201 52.0047 25.729V14.3914H56.9432V24.8479C56.9509 25.899 57.233 26.7298 57.7894 27.3403C58.3459 27.9509 59.0917 28.2562 60.0268 28.2562C60.6219 28.2562 61.1783 28.1209 61.6961 27.8504C62.2139 27.5722 62.6313 27.1626 62.9481 26.6216C63.2727 26.0806 63.4312 25.4121 63.4234 24.6161Z" fill="#EBF5EE"/>
</svg>
